<?xml version="1.0" encoding="utf-8"?>
<!-- Generator: Adobe Illustrator 18.1.1, SVG Export Plug-In . SVG Version: 6.00 Build 0)  -->
<svg version="1.1" xmlns="http://www.w3.org/2000/svg" xmlns:xlink="http://www.w3.org/1999/xlink" width="32px" height="32px" viewBox="0 0 1592.1 456.8">
<g>
	<path fill="#969696" d="M1328.4,332.9c-7.8,0-14.8,1.5-21,4.5c-6.2,3-11.4,7.2-15.7,12.6c-4.3,5.4-7.6,11.9-10,19.3
		c-2.3,7.5-3.5,15.7-3.5,24.7c0,0.7,0,1,0,1.7c0,18.7,5,33.7,14.6,44.4c8.4,9.4,22.8,16.1,40.8,16.1c11.2,0,23.9-2.6,37.3-8.8
		l-4.5-9.7c-30.1,13.8-54.7,7.6-65.7-4.7c-7.9-8.8-11.6-21-11.6-37.3l72.5-0.1c7,0,8.9-2.5,9.5-7.1c0.3-2.3,0.4-4.7,0.4-7
		c0-15.1-3.8-27-11.5-35.7C1352.5,337.2,1341.9,332.9,1328.4,332.9z M1355.8,386.3c-6.3,0-66.5,0-66.5,0c0-5.1,0.8-10.4,2.5-15.6
		c1.7-5.3,4.1-10.1,7.2-14.4c5.1-6.9,16.7-14.3,29.1-14.3c11.5,0,19.7,3.6,25.4,11.5c5,7,7.1,16.2,7.3,27.7
		C1360.9,384.4,1360.1,386.3,1355.8,386.3z"/>
	<path fill="#969696" d="M759.6,351.8c-4.5-5.7-10.1-10.3-16.8-13.7c-6.7-3.4-14.5-5.1-23.3-5.1c-8.8,0-16.6,1.7-23.3,5.1
		c-6.7,3.4-12.4,8-16.8,13.7c-4.5,5.7-7.9,12.3-10.1,19.7c-2.2,7.4-3.4,15.1-3.4,23.1c0,8,1.1,15.7,3.4,23.1
		c2.2,7.4,5.6,14,10.1,19.7c4.5,5.7,10.1,10.3,16.8,13.7c6.7,3.4,14.5,5.1,23.3,5.1c8.8,0,16.6-1.7,23.3-5.1
		c6.7-3.4,12.3-8,16.8-13.7c4.5-5.7,7.9-12.3,10.1-19.7c2.2-7.4,3.4-15.1,3.4-23.1c0-8-1.1-15.7-3.4-23.1
		C767.5,364.1,764.1,357.5,759.6,351.8z M759.3,415.1c-1.8,6.3-4.5,11.8-8.1,16.5c-3.6,4.7-8,8.4-13.4,11.1
		c-5.3,2.7-11.5,4.1-18.5,4.1c-7,0-13.1-1.4-18.5-4.1c-5.3-2.8-9.8-6.5-13.3-11.1c-3.6-4.7-6.3-10.1-8.1-16.5
		c-1.8-6.3-2.7-13.1-2.7-20.5c0-7.1,0.9-13.9,2.7-20.3c1.8-6.4,4.5-11.9,8.1-16.6c3.6-4.7,8-8.4,13.3-11.1
		c5.3-2.8,11.5-4.1,18.5-4.1c7,0,13.1,1.4,18.5,4.1c5.3,2.7,9.8,6.5,13.4,11.1c3.6,4.7,6.3,10.2,8.1,16.6c1.8,6.4,2.7,13.2,2.7,20.3
		C762.1,401.9,761.2,408.7,759.3,415.1z"/>
	<path fill="#969696" d="M999.4,351.8c-4.5-5.7-10.1-10.3-16.8-13.7c-6.7-3.4-14.5-5.1-23.3-5.1c-8.8,0-16.6,1.7-23.3,5.1
		c-6.7,3.4-12.4,8-16.8,13.7c-4.5,5.7-7.9,12.3-10.1,19.7c-2.2,7.4-3.4,15.1-3.4,23.1c0,8,1.1,15.7,3.4,23.1
		c2.2,7.4,5.6,14,10.1,19.7c4.5,5.7,10.1,10.3,16.8,13.7c6.7,3.4,14.5,5.1,23.3,5.1c8.8,0,16.6-1.7,23.3-5.1
		c6.7-3.4,12.4-8,16.8-13.7c4.5-5.7,7.9-12.3,10.1-19.7c2.2-7.4,3.4-15.1,3.4-23.1c0-8-1.1-15.7-3.4-23.1
		C1007.3,364.1,1003.9,357.5,999.4,351.8z M999.2,415.1c-1.8,6.3-4.5,11.8-8.1,16.5c-3.6,4.7-8,8.4-13.4,11.1
		c-5.3,2.7-11.5,4.1-18.5,4.1c-7,0-13.1-1.4-18.5-4.1c-5.3-2.8-9.8-6.5-13.3-11.1c-3.6-4.7-6.3-10.1-8.1-16.5
		c-1.8-6.3-2.7-13.1-2.7-20.5c0-7.1,0.9-13.9,2.7-20.3c1.8-6.4,4.5-11.9,8.1-16.6c3.6-4.7,8-8.4,13.3-11.1
		c5.3-2.8,11.5-4.1,18.5-4.1c7,0,13.1,1.4,18.5,4.1c5.3,2.7,9.8,6.5,13.4,11.1c3.6,4.7,6.3,10.2,8.1,16.6c1.8,6.4,2.7,13.2,2.7,20.3
		C1001.9,401.9,1001,408.7,999.2,415.1z"/>
	<polygon fill="#969696" points="183,67.6 183,227.1 226.6,227.1 226.6,0 187.7,0 113.5,89.6 39.3,0 0,0 0,67.6 43.6,67.6
		44.9,67.6 110.2,147.6 116.4,147.6 181.7,67.6 	"/>
	<rect x="0" y="95.4" fill="#969696" width="43.6" height="131.6"/>
	<polygon fill="#969696" points="1530.4,0.1 1404.9,100.5 1404.9,0.1 1361.3,0.1 1361.3,227 1404.9,227 1404.9,149.8 1592.1,0.1
		"/>
	<polygon fill="#969696" points="1464.4,137.5 1536.2,227 1592.1,227 1498.4,110.2 	"/>
	<rect x="528.6" y="0" fill="#969696" width="43.6" height="227.1"/>
	<path fill="#969696" d="M1220.5,357.4c-2.7-6-7.9-12.8-13.6-17c-5.7-4.2-16.8-6.2-25-6.2c-8.2,0-19.2,2.1-25,6.2
		c-5.7,4.2-10.9,10.9-13.6,17c-0.3,0.7-0.7,1.5-1,2.4c-0.3-0.8-0.7-1.7-1-2.4c-2.7-6-7.9-12.8-13.6-17c-5.7-4.2-16.8-6.2-25-6.2
		c-8.2,0-19.2,2.1-25,6.2c-5.7,4.2-10.9,10.9-13.6,17c-2.7,6-5.3,16.3-5.7,20.5c-0.5,4.5-0.7,9.2-0.7,14v64.5h11v-62.7
		c0-6.8,0.5-13.3,1.6-19.3c1.1-6.1,2.9-11.4,5.4-15.8c2.5-4.5,5.9-8.1,10.1-10.7c4.2-2.7,10.8-4,17-4c6.2,0,12.7,1.3,17,4
		c4.2,2.7,7.6,6.2,10.1,10.7c2.5,4.5,4.3,9.8,5.4,15.8c1.1,6,1.6,12.4,1.6,19.2v62.9h0h11h0v-62.9c0-6.8,0.5-13.2,1.6-19.2
		c1.1-6.1,2.9-11.4,5.4-15.8c2.5-4.5,5.9-8.1,10.1-10.7c4.2-2.7,10.8-4,17-4c6.2,0,12.7,1.3,17,4c4.2,2.7,7.6,6.2,10.1,10.7
		c2.5,4.5,4.3,9.8,5.4,15.8c1.1,6.1,1.6,12.5,1.6,19.3v62.7h11v-64.5c0-4.8-0.2-9.5-0.7-14C1225.8,373.7,1223.2,363.4,1220.5,357.4z
		"/>
	<path fill="#969696" d="M1581.1,396.8c0,6.8-0.5,13.3-1.6,19.3c-1.1,6.1-2.9,11.4-5.4,15.8c-2.5,4.5-5.9,8.1-10.1,10.7
		c-4.2,2.7-10.8,4-17,4s-12.7-1.3-17-4c-4.2-2.7-7.6-6.2-10.1-10.7c-2.5-4.5-4.3-9.8-5.4-15.8c-1.1-6-1.6-12.4-1.6-19.2v-62.2h0h-11
		h0V397c0,6.8-0.5,13.2-1.6,19.2c-1.1,6.1-2.9,11.4-5.4,15.8c-2.5,4.5-5.9,8.1-10.1,10.7c-4.2,2.7-10.8,4-17,4c-6.2,0-12.7-1.3-17-4
		c-4.2-2.7-7.6-6.2-10.1-10.7c-2.5-4.5-4.3-9.8-5.4-15.8c-1.1-6.1-1.6-12.5-1.6-19.3v-62h-11v63.8c0,4.8,0.2,9.5,0.7,14
		c0.5,4.2,3,14.4,5.7,20.5c2.7,6,7.9,12.8,13.6,17c5.7,4.2,16.8,6.2,25,6.2c8.2,0,19.2-2.1,25-6.2c5.7-4.2,10.9-10.9,13.6-17
		c0.3-0.7,0.7-1.5,1-2.4c0.3,0.8,0.7,1.7,1,2.4c2.7,6,7.9,12.8,13.6,17c5.7,4.2,16.8,6.2,25,6.2c8.2,0,19.2-2.1,25-6.2
		c5.7-4.2,10.9-10.9,13.6-17c2.7-6,5.3-16.3,5.7-20.5c0.5-4.5,0.7-9.2,0.7-14v-63.8h-11V396.8z"/>
	<path fill="#969696" d="M439,443.4c-7.2-3.7-11.2-12-11.2-23.4v-75.8h41.8v-9.5h-41.8v-31.4h-10.7v31.4h-21.9v9.5h21.9V420
		c0,15.4,6.2,27.4,17.1,32.9c4.3,2.2,9.1,3.3,14.1,3.3c8.9,0,16.7-3.3,22.1-6.4c0,0-0.1-0.2-3.2-10.6
		C456.7,445.7,447,447.5,439,443.4z"/>
	<path fill="#969696" d="M283.8,409.8v46.4h10.7v-46.4c0-48.8,11.9-65.6,48.8-65.6v-9.5C294,334.7,283.8,364.7,283.8,409.8z"/>
	<path fill="#969696" d="M846.3,443.4c-7.2-3.7-11.2-12-11.2-23.4V303.4h-10.7V420c0,15.4,6.2,27.4,17.1,32.9
		c4.3,2.2,9.1,3.3,14.1,3.3c3.9,0,7.6-0.6,11-1.6l-2.7-10.4C857.4,446.2,851.5,446.1,846.3,443.4z"/>
	<path fill="#969696" d="M612.2,358.2c-2.7-6-7.9-12.8-13.6-17c-5.7-4.2-16.8-6.2-25-6.2c-8.2,0-19.2,2.1-25,6.2
		c-3.4,2.5-6.5,5.9-9.1,9.5v-47.2h-11v89.1v63.8h11v-62.1c0-6.8,0.5-13.3,1.6-19.3c1.1-6.1,2.9-11.4,5.4-15.8
		c2.5-4.5,5.9-8.1,10.1-10.7c4.2-2.7,10.8-4,17-4c6.2,0,12.7,1.3,17,4c4.2,2.7,7.6,6.2,10.1,10.7c2.5,4.5,4.3,9.8,5.4,15.8
		c1.1,6.1,1.6,12.5,1.6,19.3v62.1h11v-63.8c0-4.8-0.3-9.5-0.8-14C617.5,374.5,615,364.3,612.2,358.2z"/>
	<path fill="#969696" d="M70.6,338.6c-6.3-3.3-17.1-4.9-25.3-4.9c-8.2,0-19.2,2.1-25,6.2c-3.4,2.5-6.5,5.8-9.1,9.4v-45.3H0v132.8
		c0,16.9,23.6,19.5,38.3,19.5c9.4,0,17.9-1.7,25.5-5c7.5-3.3,13.9-7.9,19.2-13.6c5.2-5.7,8.6-12,12-20.3c5.8-14.4,4.8-47.3-8.6-65.4
		C82.6,347,76.9,341.9,70.6,338.6z M84.5,413.7c-2.1,6.4-5.3,12.3-9.5,17.2c-4.2,4.9-9.4,8.7-15.6,11.5c-6.2,2.7-13.2,4.1-21.1,4.1
		c-11,0-27,0-27-12V392c0.1-6.4,0.6-12.5,1.6-18.2c1.1-6.1,2.9-11.4,5.4-15.8c2.5-4.5,5.9-8.1,10.1-10.7c4.2-2.7,10.8-4,17-4
		c7,0,14.9,1.7,20,4.4c5.1,2.8,9.5,7.1,12.7,11.3C88.2,372.1,89.9,397.3,84.5,413.7z"/>
	<path fill="#969696" d="M184.5,334.2c-16.7,0-28.8,6.8-33.2,9.9l4.7,9.2c3.5-2.5,14.9-9.4,28.5-9.4c17.5,0,33.1,3.9,33.6,42.9H193
		c-25.6,0-44.3,10.2-47.5,26.4c-2.7,13.2-0.9,23.6,5.3,31.1c9.8,11.9,27.5,12.6,37.5,12.6c0.7,0,1.4,0,2.1,0l1.5,0
		c10.2,0,18.8-3.4,26.3-7.8v7.8h10.7v-68.2C228.8,340.3,206.5,334.2,184.5,334.2z M218.1,437.8c-7.4,5.1-16.1,9.5-26.3,9.5l-1.5,0
		c-8.1,0.1-24.6,0.1-32.3-9.1c-4.2-5.2-5.3-13-3.3-23.2c2.3-11.4,17.7-20,38.2-20h25.1V437.8z"/>
	<polygon fill="#969696" points="1059,227 1059,183.3 932.4,183.3 917.9,165.2 917.9,38.6 1058.9,38.6 1058.9,0.1 917.8,0.1
		917.8,0.1 874.2,0.1 874.2,180.6 911.5,227 	"/>
</g>
</svg>
