<?xml version="1.0" encoding="utf-8"?>
<!-- Generator: Adobe Illustrator 18.1.1, SVG Export Plug-In . SVG Version: 6.00 Build 0)  -->
<svg version="1.1" xmlns="http://www.w3.org/2000/svg" xmlns:xlink="http://www.w3.org/1999/xlink" width="32px" height="32px" viewBox="0 0 50 50">
<g>
	<path fill="#5A5B5B" d="M26.8,36V25h3.3l0.4-3.8h-3.7l0-1.9c0-1,0.1-1.5,1.6-1.5h2V14h-3.3c-3.9,0-5.3,1.8-5.3,4.9v2.3h-2.4V25h2.4
		v11H26.8z"/>
	<g>
		<g>
			<path fill="#5A5B5B" d="M25,0C11.2,0,0,11.2,0,25s11.2,25,25,25s25-11.2,25-25S38.8,0,25,0z M25,47C12.8,47,3,37.2,3,25
				S12.8,3,25,3s22,9.8,22,22S37.2,47,25,47z"/>
		</g>
	</g>
</g>
</svg>
