<?xml version="1.0" encoding="utf-8"?>
<!-- Generator: Adobe Illustrator 18.1.1, SVG Export Plug-In . SVG Version: 6.00 Build 0)  -->
<svg version="1.1" xmlns="http://www.w3.org/2000/svg" xmlns:xlink="http://www.w3.org/1999/xlink" width="32px" height="32px" viewBox="0 0 50 50">
<g>
	<path fill="#5A5B5B" d="M25,0C11.2,0,0,11.2,0,25s11.2,25,25,25s25-11.2,25-25S38.8,0,25,0z M25,47C12.8,47,3,37.2,3,25
		S12.8,3,25,3s22,9.8,22,22S37.2,47,25,47z"/>
	<rect x="14" y="20.1" fill="#5A5B5B" width="4.7" height="14.5"/>
	<path fill="#5A5B5B" d="M16.7,13c-1.6,0-2.7,1.1-2.7,2.5c0,1.4,1,2.5,2.6,2.5h0c1.6,0,2.7-1.1,2.7-2.5C19.3,14.1,18.3,13,16.7,13z"
		/>
	<path fill="#5A5B5B" d="M30.6,20.1c-2.5,0-3.6,1.4-4.2,2.4v-2.1h-4.7c0.1,1.4,0,14.5,0,14.5h4.7v-8.1c0-0.4,0-0.9,0.2-1.2
		c0.3-0.9,1.1-1.8,2.4-1.8c1.7,0,2.4,1.3,2.4,3.3V35H36l0-8.3C36,22.2,33.7,20.1,30.6,20.1z"/>
</g>
</svg>
